<?xml version="1.0" standalone="no"?>
<!DOCTYPE svg PUBLIC "-//W3C//DTD SVG 20010904//EN"
 "http://www.w3.org/TR/2001/REC-SVG-20010904/DTD/svg10.dtd">
<svg version="1.0" xmlns="http://www.w3.org/2000/svg"
 width="900.000000pt" height="900.000000pt" viewBox="0 0 900.000000 900.000000"
 preserveAspectRatio="xMidYMid meet">

<g transform="translate(0.000000,900.000000) scale(0.100000,-0.100000)"
fill="#000000" stroke="none">
<path d="M4220 8614 c-19 -2 -87 -9 -150 -15 -272 -25 -609 -99 -889 -194
-609 -207 -1138 -538 -1596 -999 -512 -515 -877 -1153 -1059 -1850 -222 -849
-165 -1764 162 -2576 367 -915 1065 -1678 1942 -2124 537 -273 1079 -417 1682
-446 698 -33 1397 114 2020 425 260 130 513 291 738 472 145 115 418 377 531
509 481 560 798 1209 933 1909 317 1647 -378 3299 -1774 4220 -538 355 -1137
574 -1785 651 -122 15 -669 28 -755 18z m720 -68 c1194 -134 2253 -775 2927
-1771 340 -503 561 -1079 648 -1692 180 -1261 -240 -2524 -1140 -3429 -643
-646 -1452 -1044 -2375 -1166 -142 -19 -212 -22 -500 -22 -295 -1 -356 2 -505
23 -485 65 -883 187 -1305 397 -1123 560 -1916 1599 -2169 2839 -55 273 -66
397 -66 790 0 406 10 509 76 832 114 552 375 1131 716 1587 439 585 1042 1056
1698 1326 371 152 796 258 1160 289 72 6 148 13 170 15 86 9 537 -4 665 -18z"/>
<path d="M3897 8323 c-24 -4 -28 -8 -23 -26 3 -12 6 -32 6 -45 0 -19 4 -22 25
-17 14 3 36 7 48 10 21 4 23 9 18 42 -7 40 -16 45 -74 36z"/>
<path d="M3762 8298 c-43 -9 -43 -9 -36 -46 4 -20 8 -38 9 -40 2 -2 23 0 48 3
l45 7 -5 37 c-3 20 -8 39 -12 42 -3 3 -25 2 -49 -3z"/>
<path d="M5219 8280 c-1 -16 -2 -35 -3 -42 -1 -14 74 -32 84 -21 4 5 10 22 13
40 6 30 4 33 -31 43 -55 15 -62 13 -63 -20z"/>
<path d="M4427 8163 c-4 -38 -9 -164 -13 -280 l-7 -213 50 0 50 0 7 92 c3 50
6 128 7 172 2 146 3 146 119 -75 l105 -199 57 0 58 0 0 63 c0 34 5 156 10 271
5 116 8 211 7 212 -1 2 -26 6 -55 10 l-52 7 -1 -124 c-1 -68 -4 -158 -8 -199
l-6 -75 -20 40 c-11 23 -58 114 -104 203 l-84 162 -57 0 -57 0 -6 -67z"/>
<path d="M4022 8198 c-42 -8 -52 -13 -48 -26 3 -9 19 -99 37 -200 26 -156 29
-187 19 -213 -16 -37 -56 -59 -107 -59 -48 0 -78 21 -92 63 -8 24 -71 366 -71
385 0 6 -95 -11 -104 -18 -9 -9 33 -271 60 -378 20 -79 61 -125 124 -142 92
-25 234 16 280 80 37 52 37 114 -1 329 -18 105 -35 190 -38 190 -3 -1 -30 -6
-59 -11z"/>
<path d="M5131 7890 c-29 -149 -52 -272 -50 -275 3 -2 27 -7 55 -10 l50 -7 38
188 c21 104 46 226 55 271 l18 82 -49 11 c-27 5 -52 10 -56 10 -4 0 -31 -122
-61 -270z"/>
<path d="M5566 7986 c-3 -50 -7 -183 -8 -294 l-3 -204 47 -18 48 -18 185 226
c101 125 181 229 177 233 -4 3 -28 13 -54 22 l-47 16 -128 -174 c-70 -96 -129
-172 -131 -170 -5 4 14 287 24 381 l6 50 -55 21 -55 20 -6 -91z"/>
<path d="M2848 8009 c-43 -22 -43 -23 -20 -66 l17 -31 42 21 41 22 -15 38 c-8
20 -18 37 -22 37 -3 -1 -23 -10 -43 -21z"/>
<path d="M2913 7870 c-24 -10 -43 -22 -43 -26 0 -4 53 -119 117 -255 l117
-247 45 21 c25 12 48 23 50 24 5 3 -33 88 -132 293 -43 91 -83 175 -88 188
-10 27 -13 27 -66 2z"/>
<path d="M6145 7535 c-81 -129 -146 -237 -144 -239 8 -8 333 -208 345 -213 14
-5 58 62 49 76 -3 5 -61 44 -130 86 l-124 76 37 60 c20 32 41 59 46 59 4 0 55
-29 113 -65 57 -36 108 -65 113 -65 8 0 53 70 48 75 -2 1 -52 33 -113 70 -60
38 -111 69 -113 70 -3 3 60 105 65 105 2 0 57 -34 124 -75 66 -42 124 -73 128
-70 5 3 18 20 29 38 l19 34 -151 93 c-83 52 -161 100 -173 108 -20 13 -26 5
-168 -223z"/>
<path d="M2472 7621 c-99 -34 -165 -110 -178 -203 -14 -100 64 -250 164 -316
46 -31 65 -37 122 -40 48 -3 76 0 98 12 l32 17 0 -36 c0 -38 18 -47 40 -20 17
20 46 19 55 -2 7 -20 -35 -63 -61 -63 -8 0 -14 -9 -14 -21 0 -17 4 -19 23 -13
89 27 128 86 97 145 -13 23 -57 25 -88 3 -20 -14 -22 -14 -22 4 0 10 12 29 26
43 32 29 59 82 68 130 7 41 -11 139 -26 139 -5 0 -27 -12 -48 -27 -37 -27 -38
-29 -33 -80 6 -51 4 -54 -30 -87 -68 -63 -136 -57 -207 20 -47 51 -90 135 -90
177 0 91 117 161 188 111 23 -16 29 -14 106 38 19 12 -36 58 -88 73 -62 19
-69 18 -134 -4z"/>
<path d="M4265 7374 c-22 -2 -104 -13 -182 -25 -768 -109 -1462 -535 -1923
-1179 -553 -773 -680 -1794 -333 -2695 98 -256 288 -579 464 -790 481 -575
1146 -935 1884 -1020 152 -18 464 -20 621 -4 706 69 1396 425 1858 959 286
331 490 703 607 1114 152 529 140 1134 -31 1660 -313 960 -1086 1674 -2072
1911 -206 50 -354 67 -613 70 -132 2 -258 1 -280 -1z m630 -74 c922 -131 1720
-710 2130 -1545 197 -402 287 -784 288 -1230 1 -287 -31 -524 -108 -795 -101
-353 -307 -739 -548 -1025 -376 -446 -894 -774 -1447 -915 -1234 -315 -2503
216 -3145 1315 -175 300 -297 650 -351 1007 -22 143 -30 506 -15 665 62 661
346 1259 821 1733 469 467 1079 749 1750 810 150 14 455 4 625 -20z"/>
<path d="M3257 5753 l-1237 -1238 430 3 c237 1 430 1 430 0 1 -2 3 -39 6 -83
39 -561 416 -1035 949 -1193 145 -43 259 -56 438 -49 206 7 340 41 522 131
153 76 271 163 383 280 211 223 335 505 358 814 l7 92 -1042 0 -1041 0 0 49
c0 27 5 85 11 128 79 579 521 1038 1095 1138 129 22 352 20 477 -6 445 -90
806 -385 978 -799 46 -109 88 -287 96 -401 l6 -99 428 -2 429 -3 -1237 1238
c-681 680 -1240 1237 -1243 1237 -3 0 -562 -557 -1243 -1237z"/>
<path d="M6712 7147 l-191 -202 38 -38 38 -38 78 81 79 80 58 -57 c73 -72 75
-93 13 -163 -74 -83 -75 -88 -25 -133 l44 -38 14 28 c8 15 37 52 64 82 46 50
49 58 46 97 l-3 43 40 -5 c75 -10 155 69 155 154 0 62 -22 93 -149 211 l-108
101 -191 -203z m276 -6 c47 -45 62 -66 62 -87 0 -34 -45 -84 -76 -84 -24 0
-154 104 -154 123 0 11 89 107 100 107 3 0 33 -27 68 -59z"/>
<path d="M1831 7309 l-34 -31 32 -31 31 -32 31 32 32 31 -24 31 c-13 16 -26
30 -29 30 -3 0 -20 -13 -39 -30z"/>
<path d="M1934 7196 l-38 -33 188 -199 c104 -110 192 -200 195 -202 4 -1 24
15 45 36 l37 39 -187 197 c-103 108 -190 196 -194 196 -4 0 -24 -15 -46 -34z"/>
<path d="M1581 6806 c-67 -85 -124 -161 -127 -169 -3 -8 9 -25 30 -40 l35 -27
81 105 c84 108 100 125 100 103 0 -7 23 -109 52 -226 51 -211 52 -213 89 -243
l37 -29 131 167 c72 93 131 170 131 173 0 3 -16 16 -36 29 -41 28 -30 37 -138
-102 -45 -59 -78 -93 -81 -85 -5 15 -78 309 -95 384 -12 53 -20 66 -61 94
l-27 20 -121 -154z"/>
<path d="M7358 6730 c-41 -12 -87 -48 -104 -82 -22 -42 -14 -94 31 -204 41
-103 44 -137 13 -158 -33 -23 -53 -20 -93 15 -64 57 -82 111 -54 164 l19 36
-27 37 c-15 20 -28 39 -30 41 -2 2 -12 -4 -24 -15 -73 -66 -65 -187 21 -300
66 -88 158 -116 241 -74 89 46 99 124 35 284 -42 104 -44 129 -14 150 32 22
52 20 88 -10 58 -49 76 -116 44 -162 -16 -23 -13 -31 43 -101 8 -10 53 45 64
77 35 106 -56 270 -168 301 -43 12 -48 12 -85 1z"/>
<path d="M1180 6171 l-29 -58 157 -164 c87 -90 177 -185 201 -211 24 -27 46
-48 50 -48 3 0 16 24 29 52 l22 52 -40 41 -41 42 46 95 46 95 47 -8 c26 -4 53
-8 59 -8 12 -1 69 97 61 104 -2 2 -118 17 -258 34 -140 17 -270 33 -288 35
-31 5 -34 2 -62 -53z m244 -76 c49 -8 91 -16 93 -19 4 -4 -54 -126 -60 -126
-1 0 -41 39 -87 86 -66 66 -79 84 -60 80 14 -3 65 -12 114 -21z"/>
<path d="M7925 6213 c-16 -8 -31 -17 -33 -18 -2 -2 21 -59 34 -83 3 -6 74 32
74 40 0 12 -33 78 -39 78 -3 -1 -19 -8 -36 -17z"/>
<path d="M7562 6049 l-243 -118 26 -50 25 -50 237 115 c131 64 244 118 251
121 15 7 16 5 -10 58 -12 25 -27 45 -32 44 -6 0 -120 -54 -254 -120z"/>
<path d="M7938 5816 c-20 -6 -39 -13 -42 -16 -3 -3 6 -41 19 -83 17 -56 20
-79 12 -82 -7 -2 -102 -32 -212 -66 -110 -33 -203 -64 -207 -68 -4 -3 0 -29 8
-57 l15 -51 216 68 c120 37 220 66 223 64 3 -2 17 -38 30 -79 21 -68 26 -76
44 -70 58 18 67 24 62 42 -32 111 -120 389 -125 398 -4 7 -17 7 -43 0z"/>
<path d="M1020 5584 c-73 -32 -119 -96 -139 -195 -35 -167 87 -305 287 -325
158 -17 283 91 285 245 0 43 -6 69 -21 95 l-21 36 34 0 c30 0 35 4 43 33 5 17
8 33 6 35 -1 2 -64 19 -140 38 -98 24 -140 31 -145 23 -16 -26 -52 -200 -43
-209 5 -5 25 -11 44 -12 34 -3 34 -2 46 50 7 30 15 56 18 59 12 12 59 -31 77
-72 30 -68 8 -139 -57 -184 -70 -48 -243 -12 -296 62 -57 79 -20 202 67 226
22 5 31 16 41 51 8 25 14 48 14 53 0 12 -63 7 -100 -9z"/>
<path d="M755 5549 c-4 -13 -1 -27 9 -38 34 -38 10 -141 -33 -141 -17 0 -31
-18 -31 -41 0 -17 57 -9 85 13 71 56 72 183 1 216 -22 10 -26 9 -31 -9z"/>
<path d="M8050 5094 c-404 -43 -430 -47 -430 -63 0 -34 41 -395 45 -399 2 -2
24 -1 47 2 l44 7 -12 117 c-7 64 -13 133 -13 153 l-1 37 66 7 c36 4 68 4 72 1
3 -4 12 -63 19 -133 8 -70 15 -128 16 -130 1 -1 22 1 46 4 l44 6 -7 61 c-4 34
-9 95 -13 137 l-6 77 59 4 c32 2 60 4 61 3 1 0 9 -65 17 -144 8 -79 17 -145
19 -147 2 -3 23 -2 46 2 33 5 41 11 41 28 0 33 -38 378 -42 380 -2 1 -55 -4
-118 -10z"/>
<path d="M992 4829 c-109 -18 -180 -78 -208 -176 -29 -101 -4 -212 63 -275 53
-50 118 -71 223 -72 85 -1 101 2 153 27 92 46 136 120 137 232 0 33 -5 77 -11
98 -13 47 -70 112 -120 137 -32 17 -146 42 -174 39 -5 -1 -34 -5 -63 -10z
m187 -129 c78 -39 106 -108 76 -186 -25 -67 -84 -98 -184 -98 -129 1 -201 56
-201 154 0 97 69 149 198 150 53 0 83 -5 111 -20z"/>
<path d="M7731 4409 c-48 -29 -68 -56 -86 -113 -17 -57 -20 -172 -4 -213 27
-71 113 -122 185 -108 70 13 91 44 159 239 19 53 46 86 70 86 9 0 27 -11 40
-25 50 -49 25 -163 -41 -191 -32 -14 -34 -17 -34 -64 0 -44 3 -50 20 -50 31 0
85 25 109 51 34 36 51 75 61 136 23 139 -48 243 -165 243 -90 0 -127 -42 -174
-199 -22 -73 -56 -121 -86 -121 -9 0 -27 11 -40 25 -54 53 -20 205 47 213 21
3 27 10 32 40 11 67 9 72 -26 72 -18 0 -48 -9 -67 -21z"/>
<path d="M1164 4060 c-27 -10 -74 -67 -74 -88 0 -12 -6 -10 -26 9 -32 30 -107
32 -149 5 -37 -24 -65 -75 -65 -117 0 -38 54 -307 64 -316 7 -7 518 97 530
108 13 12 -42 272 -68 323 -29 58 -76 86 -140 85 -28 0 -60 -4 -72 -9z m121
-120 c17 -19 54 -143 55 -182 0 -12 -16 -19 -70 -29 -39 -7 -73 -9 -76 -6 -9
9 -33 127 -34 165 0 19 8 40 20 52 26 26 81 26 105 0z m-232 -58 c14 -15 47
-139 47 -176 0 -11 -109 -41 -118 -31 -8 7 -31 129 -32 162 0 17 7 39 16 47
21 21 67 20 87 -2z"/>
<path d="M7562 3749 c-7 -29 -10 -54 -8 -57 3 -2 124 -35 270 -72 l265 -67 12
49 c6 28 8 53 3 58 -5 5 -119 36 -254 70 -135 33 -252 63 -261 65 -12 4 -18
-7 -27 -46z"/>
<path d="M8170 3602 c-15 -54 -14 -57 29 -68 l39 -11 12 45 c6 24 10 46 8 47
-2 2 -20 7 -40 13 -37 10 -38 10 -48 -26z"/>
<path d="M1293 3146 c-38 -17 -63 -61 -63 -112 0 -28 8 -44 34 -70 87 -87 223
-3 187 116 -19 63 -94 95 -158 66z"/>
<path d="M7615 3151 c-29 -13 -61 -52 -68 -82 -11 -43 11 -98 46 -119 66 -41
144 -18 171 51 20 49 10 92 -28 128 -26 25 -89 36 -121 22z"/>
<path d="M5488 1520 c-82 -25 -128 -85 -128 -169 0 -56 2 -57 60 -40 35 11 37
14 36 51 -2 96 125 106 148 12 9 -33 -8 -60 -47 -80 -18 -9 -33 -17 -35 -19
-1 -1 3 -16 9 -33 10 -30 11 -30 63 -25 49 5 54 3 74 -22 32 -40 30 -97 -4
-124 -36 -28 -85 -27 -112 2 -12 13 -22 29 -22 36 0 7 -6 11 -12 8 -7 -2 -30
-10 -51 -18 -41 -15 -42 -29 -4 -81 42 -56 114 -71 205 -42 114 37 163 144
112 249 -19 39 -63 75 -93 75 -12 0 -11 7 5 39 16 33 17 46 9 78 -6 21 -17 48
-25 59 -32 45 -117 65 -188 44z"/>
<path d="M3481 1501 c-17 -31 -66 -45 -116 -34 -43 10 -44 9 -56 -19 -14 -35
-9 -41 59 -63 28 -9 52 -18 52 -19 0 -1 -27 -82 -60 -181 -33 -98 -57 -182
-52 -185 9 -8 93 -32 96 -28 2 2 41 120 88 263 l86 260 -31 12 c-45 16 -55 16
-66 -6z"/>
<path d="M4045 1361 c-51 -31 -68 -58 -73 -114 -4 -46 -1 -57 20 -82 l25 -28
-43 -41 c-49 -47 -65 -108 -44 -170 25 -77 92 -116 198 -116 134 0 216 116
163 234 -11 25 -27 49 -35 52 -22 9 -20 21 5 29 30 10 63 88 55 130 -14 74
-89 124 -186 125 -36 0 -65 -6 -85 -19z m128 -72 c35 -16 49 -51 36 -89 -19
-52 -67 -65 -113 -29 -36 28 -36 80 0 108 30 24 43 26 77 10z m7 -246 c25 -32
23 -92 -5 -123 -56 -61 -156 -8 -141 76 10 50 38 74 85 74 31 0 44 -6 61 -27z"/>
<path d="M4768 1360 c-58 -31 -90 -96 -96 -190 -9 -152 35 -289 107 -337 47
-32 140 -32 196 0 53 29 85 92 85 164 0 65 -17 108 -59 148 -26 24 -41 30 -94
33 -54 3 -67 0 -99 -22 l-38 -25 0 40 c0 106 78 165 135 103 22 -24 29 -25 74
-19 l50 7 -20 39 c-11 22 -34 49 -52 59 -43 27 -138 26 -189 0z m142 -275 c58
-30 63 -137 9 -178 -58 -42 -129 12 -129 99 0 42 12 64 45 82 27 15 41 15 75
-3z"/>
</g>
</svg>
